<svg version="1.0" id="Layer_1" xmlns="http://www.w3.org/2000/svg" xmlns:xlink="http://www.w3.org/1999/xlink" x="0px" y="0px"
	 width="100%" viewBox="0 0 448 432" enable-background="new 0 0 448 432" xml:space="preserve">
<path fill="#000000" opacity="1.000000" stroke="none"
		d="
M219.464645,433.000000 
	C206.769928,423.501556 195.262207,413.129272 183.968445,402.589783 
	C175.607178,394.786835 166.441299,389.143860 155.622482,385.638641 
	C144.701462,382.100311 133.916016,378.106506 123.215195,373.942108 
	C118.277344,372.020416 113.372955,371.301544 108.129326,371.322815 
	C80.137451,371.436554 52.133125,370.912445 24.158569,371.618256 
	C13.580085,371.885132 5.374574,361.529205 3.672091,353.264923 
	C1.606466,343.237915 1.876183,333.078705 1.879264,322.928406 
	C1.907439,230.120712 1.908505,137.312988 1.974517,44.505329 
	C1.977228,40.694199 2.270811,36.837578 2.898980,33.080757 
	C5.205984,19.283516 12.324911,15.843465 27.392351,14.882533 
	C38.344975,14.184026 49.377705,14.719528 60.374565,14.754038 
	C62.780609,14.761589 64.822731,14.524934 66.510147,12.326735 
	C73.497826,3.223904 83.211487,1.286501 93.779335,3.087792 
	C105.580254,5.099258 117.284508,7.696082 128.997009,10.196613 
	C132.411362,10.925553 135.394455,10.867241 138.532608,8.967459 
	C143.638809,5.876249 149.207047,5.680196 154.903564,7.404053 
	C162.233536,9.622221 169.573776,11.811639 176.947113,13.879620 
	C182.266556,15.371548 186.940964,15.022389 191.875259,11.358930 
	C200.085922,5.262934 209.383667,4.164540 218.530731,9.758878 
	C223.598785,12.858497 228.707016,14.842013 234.803894,15.153480 
	C239.837585,15.410631 245.140015,16.354321 249.158524,20.153313 
	C250.951141,21.848013 252.589355,20.765182 254.183594,19.955173 
	C265.364166,14.274479 275.185699,17.234304 284.051453,24.898428 
	C298.284943,37.202778 312.490143,49.546432 326.446014,62.162483 
	C333.228577,68.293892 340.412445,73.518646 349.311584,75.884079 
	C356.149231,77.701561 360.408691,82.331024 363.570709,88.197426 
	C364.750671,90.386513 366.353088,91.775841 368.451813,92.948212 
	C378.048248,98.308952 387.538544,103.861160 397.168976,109.159180 
	C403.200012,112.477066 406.814911,117.365707 407.129822,124.194138 
	C407.279602,127.441902 408.760101,129.376099 410.995636,131.264145 
	C419.135620,138.139114 426.750000,145.752213 435.441650,151.829788 
	C447.177094,160.035706 448.308380,183.011398 439.628876,193.343567 
	C419.494934,217.311066 399.991150,241.809753 379.758606,265.692078 
	C355.230774,294.644562 330.185760,323.158508 305.421021,351.910797 
	C286.832672,373.492157 269.671967,396.231415 251.847321,418.431000 
	C246.762939,424.763275 240.382294,428.878967 233.196793,432.721313 
	C228.643097,433.000000 224.286194,433.000000 219.464645,433.000000 
M193.389618,19.321297 
	C191.286209,20.413990 189.425735,21.818583 188.253632,23.911545 
	C180.721039,37.362019 173.221390,50.830936 165.563751,64.557617 
	C168.474091,64.735321 170.754288,64.874550 172.985611,65.010788 
	C176.678009,57.971272 181.301102,55.724930 186.176056,58.524586 
	C191.033142,61.313984 191.194214,65.519043 186.476349,73.397141 
	C188.899734,75.108688 190.189682,77.867676 191.796829,81.224648 
	C195.817200,74.314980 199.404755,68.149147 203.413025,61.456257 
	C206.357117,56.436310 209.466034,51.503647 212.186890,46.365498 
	C213.978378,42.982433 216.105484,42.771526 219.039108,44.591118 
	C220.734314,45.642574 222.480911,46.612926 224.223358,47.585808 
	C225.254486,48.161537 226.442734,48.802212 227.426682,47.735756 
	C232.217743,42.542870 236.938507,37.285137 242.197296,31.484341 
	C231.589584,25.613535 222.341461,19.418896 212.154449,14.926681 
	C205.248901,11.881520 199.315781,14.402588 193.389618,19.321297 
M128.431671,36.980019 
	C124.403305,49.254856 120.374947,61.529697 116.186920,74.291054 
	C118.279442,74.388199 119.681725,75.696983 121.536903,74.257698 
	C121.280785,69.570145 123.495255,66.399529 128.113144,65.088486 
	C130.849197,64.311707 133.513519,64.658592 135.453629,66.894150 
	C138.933594,70.904099 138.225952,75.119049 135.175537,79.536003 
	C138.505753,81.529945 140.387390,84.299728 140.730942,88.114983 
	C145.791855,74.672867 150.773987,61.289059 155.229034,47.732044 
	C156.686951,43.295563 158.912552,42.504745 162.477783,44.458481 
	C166.456329,46.638714 168.513992,45.221802 170.219543,41.510143 
	C171.884430,37.886948 174.061111,34.502563 175.860947,30.936543 
	C177.167023,28.348774 179.429108,26.110634 179.271164,22.462360 
	C170.084625,19.415340 160.941803,16.460381 151.555649,14.257726 
	C145.553848,12.849277 140.720062,14.863504 136.827820,19.265331 
	C134.176208,22.264095 132.214218,25.762325 130.940247,30.321499 
	C130.189423,32.338673 129.438599,34.355846 128.431671,36.980019 
M312.365570,332.864990 
	C331.540039,310.708038 350.923279,288.727509 369.833374,266.347137 
	C391.006897,241.287918 411.616272,215.752350 432.757568,190.665451 
	C440.068634,181.989899 438.937317,164.030975 431.817688,158.136230 
	C410.271637,140.297073 389.585754,121.438034 367.581299,104.123413 
	C347.170593,88.062859 326.650421,72.134598 307.293243,54.761501 
	C297.023041,45.543953 287.260712,35.648426 275.812347,27.854158 
	C266.830872,21.739412 257.574799,23.627506 250.666595,32.105972 
	C247.618393,35.847038 244.532425,39.564507 241.312897,43.157654 
	C216.428497,70.929863 191.390717,98.541573 167.902618,127.557541 
	C133.009674,170.662415 97.709549,213.438278 63.279842,256.918213 
	C58.760574,262.625397 53.440453,267.714508 50.622231,274.734802 
	C47.904476,281.504852 48.631550,286.272522 54.203884,290.669189 
	C63.488190,297.994690 72.817780,305.263611 82.179939,312.489471 
	C128.054810,347.896393 174.289764,382.862823 216.882843,422.290955 
	C221.716843,426.765717 226.926651,426.911316 232.574814,424.548187 
	C238.900284,421.901703 243.554337,417.293793 247.824799,412.013184 
	C269.080750,385.729095 289.310272,358.606293 312.365570,332.864990 
M72.799065,173.397568 
	C74.801659,167.932327 77.269089,162.606812 78.312233,156.839355 
	C82.160080,135.564987 85.930183,114.276566 89.738167,92.994987 
	C92.786430,75.959274 95.952629,58.943584 98.832085,41.879459 
	C99.599411,37.332146 101.781601,36.010010 106.007767,36.970272 
	C109.416527,37.744808 112.883018,38.270718 116.280212,39.088428 
	C118.097389,39.525833 119.682587,39.622681 120.475060,37.660374 
	C123.113770,31.126362 124.700523,24.207462 128.615463,17.650295 
	C116.039024,15.091711 104.291534,12.816187 92.597305,10.293739 
	C77.939072,7.131955 68.047928,17.350584 65.580421,29.017262 
	C63.556026,38.588890 62.528252,48.389317 61.420551,58.129475 
	C60.836174,63.267944 59.290295,68.347809 59.552525,73.696068 
	C64.283096,72.308884 67.284203,70.797089 68.195244,65.211632 
	C69.245010,58.775604 76.986191,57.894325 81.521202,62.769333 
	C84.663445,66.147156 82.861633,69.962410 82.893646,73.794579 
	C87.843613,75.287270 89.109589,78.847252 88.732224,83.499352 
	C88.415604,87.402687 85.710114,88.929024 82.600471,89.829056 
	C78.259430,91.085503 75.326759,88.799721 73.048279,84.966934 
	C67.936111,89.458336 63.089081,88.775635 58.499264,83.520569 
	C57.948425,85.288078 57.502934,86.199188 57.391827,87.149391 
	C54.042416,115.792908 47.171566,143.772263 41.405075,171.958420 
	C36.972698,193.623535 32.066357,215.199371 28.064131,236.942551 
	C24.364927,257.039429 21.333765,277.270386 18.499384,297.511078 
	C16.809780,309.576782 13.368102,321.537842 17.262049,334.030945 
	C20.213907,343.501495 24.123783,346.961212 34.199032,346.002808 
	C17.888628,335.281921 14.542164,320.218567 21.823257,302.314758 
	C39.135563,259.744720 57.470940,217.587692 72.799065,173.397568 
M9.292391,111.499893 
	C9.292391,176.524979 9.292391,241.550064 9.292391,306.575134 
	C15.540601,269.843536 20.513855,232.946594 28.587286,196.562195 
	C34.781586,168.646423 40.778973,140.668228 45.943863,112.548805 
	C49.936386,90.812157 52.512871,68.815041 55.698704,46.930782 
	C56.864494,38.922684 57.972176,30.906122 59.203503,22.207127 
	C46.473019,22.342964 34.364006,21.717209 22.256443,22.648401 
	C20.463863,22.786266 18.700893,23.501455 16.958244,24.056379 
	C13.268538,25.231321 10.996245,27.873449 10.523502,31.602007 
	C9.918107,36.376812 9.138021,41.126949 9.172174,46.002769 
	C9.322757,67.501015 9.270565,89.000679 9.292391,111.499893 
M127.824089,165.360413 
	C144.377975,145.148026 161.006836,124.996277 177.436081,104.683083 
	C181.862106,99.210716 185.145020,92.945099 188.697723,86.007454 
	C180.245392,89.844353 177.604385,88.777969 172.807236,80.072784 
	C167.805084,81.130768 163.074051,80.682648 160.674988,74.105629 
	C127.422333,133.449829 93.012955,190.662476 60.343731,248.939835 
	C82.696266,221.270096 105.048798,193.600357 127.824089,165.360413 
M83.963356,192.514847 
	C100.160439,164.775787 116.352013,137.033524 132.560059,109.300880 
	C135.245239,104.706421 137.606995,100.002853 138.321152,94.567009 
	C129.738449,96.754883 127.791191,96.013527 123.905037,88.987030 
	C119.895187,91.402786 115.791443,91.006653 111.420616,88.520195 
	C94.154419,138.293854 75.295502,187.064240 58.034092,236.484680 
	C66.568604,222.045914 75.103119,207.607162 83.963356,192.514847 
M32.278175,335.247162 
	C34.234436,337.697510 36.911037,338.866272 39.831142,339.792999 
	C63.590897,347.333282 87.835609,353.294952 111.310135,361.762299 
	C117.550934,364.013336 123.811035,366.210846 130.062271,368.432953 
	C112.575493,359.405426 95.100494,350.539886 79.141403,338.981720 
	C74.025505,335.276581 68.458328,332.167572 63.511059,328.262115 
	C52.538864,319.600433 38.497459,315.099426 29.809498,303.369812 
	C24.948648,310.283478 23.308176,327.576935 32.278175,335.247162 
M106.876152,340.642578 
	C88.994354,326.784882 71.134087,312.899261 53.219242,299.084412 
	C46.836327,294.162323 40.660290,289.197174 41.412632,279.739288 
	C40.146603,281.670197 39.270477,283.432068 38.416656,285.204651 
	C33.538021,295.333038 35.693897,302.157501 45.465538,307.628357 
	C46.624279,308.277100 47.725037,309.033569 48.829048,309.775238 
	C65.815811,321.187439 82.734734,332.702271 99.809792,343.980713 
	C108.144440,349.485931 117.255737,353.527466 126.576706,357.097870 
	C120.788010,350.935944 113.858131,346.322327 106.876152,340.642578 
M106.770844,40.286915 
	C103.147781,38.940693 102.068649,41.089577 101.553963,44.060467 
	C100.249580,51.589535 98.959694,59.121307 97.610161,66.642334 
	C93.223991,91.086700 88.813698,115.526733 84.412689,139.968430 
	C97.386543,108.241615 107.722488,75.656990 118.753304,43.272228 
	C114.781731,41.247723 111.044006,41.286293 106.770844,40.286915 
M29.552288,363.976929 
	C46.939495,363.976929 64.326698,363.976929 81.713905,363.976929 
	C63.347252,359.887085 44.921585,356.456482 26.447706,353.308807 
	C21.791056,352.515411 18.098438,351.083496 15.214372,346.978546 
	C12.429790,343.015167 11.399805,338.443756 9.415148,333.415192 
	C9.039859,338.749664 9.701914,343.165924 10.249186,347.628113 
	C11.786536,360.162964 15.961490,364.022247 29.552288,363.976929 
M219.105713,48.500290 
	C217.602631,47.732376 216.093704,46.783356 214.848358,48.898758 
	C208.118851,60.329868 201.382996,71.757248 194.649323,83.185913 
	C194.915771,83.355263 195.182205,83.524612 195.448654,83.693962 
	C204.879761,73.116806 214.310867,62.539650 224.022827,51.647499 
	C222.154663,50.438408 220.926132,49.643307 219.105713,48.500290 
M158.767868,62.288181 
	C160.642868,57.934628 163.840179,54.202335 165.119171,49.514812 
	C163.136200,48.074818 161.400314,46.890015 158.735596,47.260845 
	C154.861786,58.511482 150.971313,69.810555 147.080841,81.109619 
	C147.439224,81.260345 147.797623,81.411072 148.156006,81.561798 
	C151.582855,75.357719 155.009705,69.153648 158.767868,62.288181 
z"/>
<path fill="#000000" opacity="1.000000" stroke="none"
		d="
M131.024033,29.996086 
	C133.756638,26.549349 135.490479,22.762827 139.229172,20.429491 
	C145.847534,16.298944 154.046356,19.037304 155.049011,26.676239 
	C156.476746,37.553661 153.807404,47.498260 145.162292,54.991467 
	C139.787872,59.649773 139.944702,61.923080 146.392029,65.105019 
	C146.828400,65.320389 147.238312,65.589432 147.809174,65.919434 
	C140.827621,69.642517 134.606491,66.895836 133.836029,59.998821 
	C133.547455,57.415421 132.696472,55.439545 131.264343,53.279224 
	C128.033218,48.405193 127.016685,42.921547 128.682343,36.754780 
	C129.438599,34.355846 130.189423,32.338673 131.024033,29.996086 
M134.468445,44.604511 
	C134.299057,45.589195 133.920563,46.591286 134.000793,47.555195 
	C134.212997,50.104660 133.502884,53.399216 136.776184,54.349182 
	C139.675629,55.190636 141.268509,52.621284 142.611267,50.548439 
	C147.445251,43.086163 149.640671,34.826370 149.673248,25.964821 
	C149.680511,23.988134 149.150818,22.268974 147.061172,21.622458 
	C145.082474,21.010269 143.951111,22.405048 142.935745,23.741680 
	C138.407776,29.702354 135.949783,36.533497 134.468445,44.604511 
z"/>
<path fill="#000000" opacity="1.000000" stroke="none"
		d="
M261.426483,200.290512 
	C267.984741,203.013031 271.089142,207.818558 271.269409,214.373627 
	C271.450104,220.942688 268.291504,225.117294 260.601685,229.216614 
	C260.355804,232.155380 262.820679,233.861496 264.029114,236.104935 
	C266.976562,241.576843 266.463959,247.987411 262.342682,252.747467 
	C258.408295,257.291656 250.453018,258.919617 244.417603,256.415649 
	C239.418976,254.341812 235.962311,248.600677 236.282227,242.735703 
	C236.361771,241.277496 237.041565,239.827240 236.016663,238.135696 
	C228.524658,239.403992 220.879440,239.937103 216.409058,231.954727 
	C213.458923,226.686920 213.393661,220.752899 216.912216,215.822769 
	C223.480209,206.619888 232.182312,208.600525 241.112366,213.199448 
	C244.359085,202.830750 250.396927,197.637527 261.426483,200.290512 
z"/>
<path fill="#000000" opacity="1.000000" stroke="none"
		d="
M246.434296,384.915466 
	C242.438126,385.618286 238.901291,384.815002 237.478821,381.493317 
	C236.005173,378.052124 235.441437,373.900970 238.974655,370.920929 
	C240.828079,369.357605 240.583115,368.184631 239.477081,366.276367 
	C236.707489,361.497955 238.043213,357.179321 242.614487,355.103577 
	C247.562210,352.856903 252.197968,354.473328 253.994141,359.471893 
	C254.761078,361.606232 255.457855,362.757538 257.943237,363.008850 
	C263.763733,363.597473 266.945312,367.480988 266.230316,372.555695 
	C265.579590,377.174500 261.400848,379.740082 255.649918,379.040100 
	C254.837296,378.941162 254.031052,378.789978 253.196701,378.659027 
	C251.334167,381.097931 250.049835,383.988373 246.434296,384.915466 
z"/>
<path fill="#000000" opacity="1.000000" stroke="none"
		d="
M253.448212,69.766922 
	C256.032898,74.699669 256.380981,79.020203 251.670364,82.475113 
	C250.016800,83.687897 250.761703,85.005013 251.226395,86.466751 
	C253.043930,92.184052 251.212753,96.634415 246.668518,97.796112 
	C241.449051,99.130432 238.125031,96.985992 236.715363,91.069031 
	C236.306137,89.351364 235.722672,88.615524 233.910339,88.275543 
	C226.599197,86.904022 223.820312,83.290695 225.514572,77.742104 
	C227.177505,72.296089 231.492249,70.836922 238.432190,73.373596 
	C246.116043,65.695663 247.128754,65.427261 253.448212,69.766922 
z"/>
<path fill="#000000" opacity="1.000000" stroke="none"
		d="
M242.549744,401.432098 
	C233.349716,406.630737 224.498306,411.668213 214.405151,417.412415 
	C215.803635,402.963715 222.585861,391.289459 221.819916,377.745300 
	C225.933487,378.999603 228.597000,381.128876 231.841278,384.635986 
	C227.063721,384.360474 223.733719,384.884186 224.466797,389.754547 
	C224.813751,392.059601 231.224716,396.734985 233.217773,396.063904 
	C236.590393,394.928284 237.962280,392.713623 236.014374,388.735046 
	C241.990005,390.642761 245.656342,394.924255 250.179871,398.547638 
	C247.837906,401.033386 244.810257,399.605072 242.549744,401.432098 
M227.866684,399.388855 
	C227.346161,396.775543 225.246216,395.855011 223.043167,394.605560 
	C221.249146,397.359985 220.702332,400.104675 220.672409,403.240570 
	C223.631866,402.924744 225.495224,401.206055 227.866684,399.388855 
z"/>
<path fill="#000000" opacity="1.000000" stroke="none"
		d="
M264.745117,45.728081 
	C268.055267,44.077938 271.008514,42.547134 273.987335,41.067780 
	C275.471527,40.330688 277.072662,39.356331 278.552704,40.925129 
	C279.778534,42.224468 279.083313,43.708679 278.570496,45.131081 
	C275.639008,53.261879 272.791321,61.423756 269.765717,69.519211 
	C268.891479,71.858322 267.893097,74.101227 268.579956,77.680618 
	C263.747009,74.995728 260.763123,71.613487 256.861481,67.943832 
	C261.110687,67.532349 262.888855,65.419029 262.497742,61.892319 
	C262.279175,59.921833 255.754044,55.178875 253.689819,55.236526 
	C251.147720,55.307526 250.445602,56.318787 249.765274,61.180801 
	C247.252823,59.397079 244.650497,58.022823 242.891800,54.728382 
	C251.156738,53.822388 257.342072,48.858055 264.745117,45.728081 
M262.091125,55.228992 
	C263.053925,55.705688 263.621063,57.027782 265.315247,56.539932 
	C266.091339,53.974060 266.905670,51.281681 268.080322,47.398075 
	C264.526947,49.247280 262.144409,50.487171 259.959808,51.624050 
	C259.733612,53.429699 260.892517,53.995228 262.091125,55.228992 
z"/>
<path fill="#000000" opacity="1.000000" stroke="none"
		d="
M219.295807,253.749298 
	C217.757401,252.274704 215.927399,251.490143 215.571091,249.047363 
	C219.947357,245.991608 225.131607,245.577744 230.672318,244.678452 
	C230.323456,250.301025 230.167770,255.492249 228.631500,260.763367 
	C224.068497,260.201202 222.460190,256.210266 219.295807,253.749298 
z"/>
<path fill="#000000" opacity="1.000000" stroke="none"
		d="
M264.068451,356.655670 
	C263.249054,360.375946 260.302094,360.104523 257.485535,360.578552 
	C256.142792,357.739868 256.703644,355.018005 256.923096,352.057465 
	C260.468567,351.914581 261.891998,354.597229 264.068451,356.655670 
z"/>
<path fill="#000000" opacity="1.000000" stroke="none"
		d="
M233.387299,95.118301 
	C233.280624,99.459206 231.542023,99.882744 228.913620,97.343315 
	C227.699814,96.170616 225.813538,95.294609 225.875305,93.145691 
	C231.888382,89.960953 232.527481,90.100388 233.387299,95.118301 
z"/>
<path fill="#000000" opacity="1.000000" stroke="none"
		d="
M79.846268,43.992462 
	C81.136063,37.238430 82.380302,30.898617 83.602348,24.554529 
	C84.218086,21.358025 83.714882,18.370470 81.380394,15.747118 
	C86.455688,14.852467 94.637337,16.758574 98.326271,19.824911 
	C92.373543,21.342133 92.770882,26.450228 91.745346,30.731510 
	C90.510689,35.885742 89.404755,41.072498 88.336609,46.264412 
	C87.409767,50.769547 84.679756,53.088367 80.161156,53.572056 
	C75.174850,54.105816 68.868233,51.643883 67.431145,48.454582 
	C66.680229,46.788094 66.788292,45.206371 68.205460,43.908173 
	C69.580658,42.648418 71.185860,42.473274 72.827110,43.257801 
	C74.478867,44.047352 75.389153,45.330261 74.977806,47.273422 
	C74.781212,48.202103 73.783546,48.939384 74.314682,50.041748 
	C78.504158,50.534637 78.901291,50.125763 79.846268,43.992462 
z"/>
<path fill="#000000" opacity="1.000000" stroke="none"
		d="
M69.506088,96.053314 
	C67.114395,95.593895 65.857658,94.640747 67.759064,92.768066 
	C69.241356,91.308174 70.382500,89.367828 72.713722,88.535408 
	C74.574966,90.687447 75.846603,92.997810 75.753944,95.865837 
	C73.687325,97.411392 71.755592,95.978142 69.506088,96.053314 
z"/>
<path fill="#000000" opacity="1.000000" stroke="none"
		d="
M27.170502,75.876785 
	C35.229168,73.601532 39.058876,77.689835 38.294865,87.196259 
	C45.967957,91.821800 48.059170,95.700417 45.301750,100.192047 
	C42.115730,105.381844 37.228176,105.661774 30.494797,100.838715 
	C28.055914,102.413574 25.833344,105.039726 22.321949,104.327957 
	C19.260818,103.707458 16.218966,102.526222 15.632259,99.224174 
	C15.005215,95.695099 14.630342,91.587334 18.897934,89.720093 
	C22.297548,88.232628 23.474560,86.211700 22.843025,82.485176 
	C22.350924,79.581390 24.502382,77.600037 27.170502,75.876785 
z"/>
<path fill="#000000" opacity="1.000000" stroke="none"
		d="
M37.003719,70.170197 
	C30.641348,64.945778 30.400721,57.841930 30.116184,50.849930 
	C29.903214,45.616596 31.333570,40.634087 33.348923,35.828766 
	C34.669506,32.680027 37.256329,31.219484 40.461140,31.259338 
	C43.375782,31.295586 45.275463,33.161240 46.497166,35.801731 
	C50.993225,45.519138 51.553303,55.286995 47.312557,65.271736 
	C45.352123,69.887535 42.125416,71.500938 37.003719,70.170197 
M41.843235,41.582211 
	C41.546627,39.009373 42.627247,36.026939 39.841015,33.934544 
	C35.890934,40.844002 36.247730,65.086533 41.185745,68.900871 
	C41.890888,59.640923 42.721802,51.113930 41.843235,41.582211 
z"/>
<path fill="#000000" opacity="1.000000" stroke="none"
		d="
M23.460461,70.287643 
	C19.604897,70.036865 16.106945,70.754311 12.075741,69.579895 
	C17.685015,64.936966 15.785503,58.843365 15.570591,53.372280 
	C15.359171,47.990124 18.249256,41.795177 12.520232,36.973000 
	C15.386245,34.498993 18.510210,32.342297 22.663580,31.325697 
	C23.954775,35.815258 23.207430,40.122692 23.326172,44.357876 
	C23.475163,49.671898 23.480909,54.995979 23.337729,60.310036 
	C23.242004,63.862724 23.165548,67.253563 27.088730,68.871902 
	C26.257011,70.633766 24.946976,70.120529 23.460461,70.287643 
z"/>
<path fill="#000000" opacity="1.000000" stroke="none"
		d="
M29.542810,111.857132 
	C28.039198,111.455414 26.023874,111.666313 26.920511,109.622284 
	C27.679358,107.892365 27.907917,105.587708 30.012159,104.795624 
	C31.590288,104.201576 32.497288,105.518936 33.023449,106.704689 
	C33.599239,108.002274 34.873699,109.097664 34.474251,110.801079 
	C33.244171,112.329742 31.493736,111.775215 29.542810,111.857132 
z"/>
<path fill="#000000" opacity="1.000000" stroke="none"
		d="
M166.914459,89.309578 
	C164.546616,88.011459 163.850311,86.712440 166.298187,85.250198 
	C167.834702,84.332367 169.364395,83.266670 171.634232,83.691071 
	C172.893539,86.042412 172.466568,88.517494 171.854858,90.963409 
	C169.765198,91.674408 168.632584,90.158752 166.914459,89.309578 
z"/>
<path fill="#000000" opacity="1.000000" stroke="none"
		d="
M122.377571,100.490417 
	C120.269928,99.632370 118.130959,99.562103 116.802383,97.600494 
	C117.549828,94.772087 120.247566,94.485466 122.551407,92.774452 
	C123.258110,95.768440 127.551704,97.923706 122.377571,100.490417 
z"/>
<path fill="#000000" opacity="1.000000" stroke="none"
		d="
M202.935089,61.610382 
	C190.033707,59.976089 194.473495,50.154537 194.730408,41.463955 
	C190.326843,44.966427 189.721802,49.576626 187.478729,53.487339 
	C184.672836,53.209339 182.350708,51.727955 179.648026,50.064980 
	C185.855911,43.189011 188.589081,34.570293 192.963867,26.859978 
	C194.272827,24.552986 194.714249,22.265642 193.965271,19.384811 
	C198.794342,18.642706 201.547806,22.186638 205.261017,24.491508 
	C198.913254,25.401346 198.966248,30.777281 196.841370,34.811897 
	C204.719193,33.466824 207.571991,31.013060 207.327209,25.597425 
	C211.387894,26.030247 214.586746,27.650810 217.903763,31.370098 
	C212.414429,31.580311 208.657211,33.997028 204.586761,35.561493 
	C202.821060,36.240143 201.235657,37.138763 201.390167,39.437153 
	C201.877869,46.691624 202.364059,53.946198 202.935089,61.610382 
z"/>
</svg>